<?xml version="1.0" encoding="UTF-8"?>
<!DOCTYPE svg PUBLIC "-//W3C//DTD SVG 1.1//EN" "http://www.w3.org/Graphics/SVG/1.1/DTD/svg11.dtd">
<!-- Creator: CorelDRAW 2021 (64-Bit) -->
<svg xmlns="http://www.w3.org/2000/svg" xml:space="preserve" width="181.661mm" height="83.1334mm" version="1.1" style="shape-rendering:geometricPrecision; text-rendering:geometricPrecision; image-rendering:optimizeQuality; fill-rule:evenodd; clip-rule:evenodd"
viewBox="0 0 15148651 6932478"
 xmlns:xlink="http://www.w3.org/1999/xlink"
 xmlns:xodm="http://www.corel.com/coreldraw/odm/2003">
 <defs>
  <style type="text/css">
   <![CDATA[
    .str0 {stroke:#D6261D;stroke-width:88251;stroke-linecap:round;stroke-linejoin:round;stroke-miterlimit:22.9256}
    .fil4 {fill:none}
    .fil0 {fill:#FEFEFE}
    .fil1 {fill:#29176D}
    .fil3 {fill:#D6261D}
    .fil2 {fill:#FCF404}
    .fil5 {fill:#29176D;fill-rule:nonzero}
   ]]>
  </style>
 </defs>
 <g id="Layer_x0020_1">
  <metadata id="CorelCorpID_0Corel-Layer"/>
  <path class="fil0 str0" d="M44130 6350209l0 -5767940c0,-295975 242156,-538139 538139,-538139l13984113 0c295984,0 538139,242181 538139,538139l0 5767940c0,295959 -242172,538139 -538139,538139l-13984113 0c-295959,0 -538139,-242164 -538139,-538139z"/>
  <g id="_1653966771152">
   <g>
    <g>
     <path class="fil1" d="M8372129 2057085l-75 112159c-350,411012 347894,797207 769113,786791 707913,-17512 951986,-942663 543952,-1391267 -123909,-136217 -260260,-244090 -509237,-268248 -233024,-22599 -450755,91620 -566567,211802 -126286,131039 -237152,355199 -237186,548763zm658763 -612607c-170032,29737 -298044,105363 -394442,254731 -95039,147258 -140270,313112 -117830,520536 22707,209817 97099,312345 213528,435795 109874,116487 277788,176394 486738,152904 243590,-27385 441441,-251787 496761,-479375 23925,-98425 30129,-197409 18546,-306766 -35241,-332600 -320676,-644745 -703301,-577825z"/>
     <path class="fil1" d="M10713381 2926866c102069,12458 268999,-19747 351872,-50943 102111,-38443 186576,-93505 254981,-158816 444426,-424312 264929,-1435539 -603325,-1396788l-3527 1606546zm144465 -155772c506560,16770 726967,-698215 410311,-1097677 -73675,-92938 -227246,-205514 -409611,-194540l-700 1292217z"/>
     <path class="fil1" d="M12976155 1384162l-25 1541669 143781 3969c11983,-419517 -1693,-921391 1201,-1363732 125268,68405 310010,318065 378006,465824 163144,354548 159775,552324 164461,896057l136459 1343c7255,-524805 1259,-1079756 684,-1606822l-137777 -1343 2860 744846 -50259 -115587c-87284,-192430 -242548,-396060 -408952,-514507 -43363,-30863 -185376,-133774 -230298,-136851l-142 85133z"/>
     <path class="fil1" d="M12799127 2670450c-77161,39285 -133816,117713 -300729,138235 -380841,46832 -656136,-211218 -695413,-617452l701567 -1101 -150 -144198 -701417 -208c48983,-498688 499580,-734147 857648,-555835 48800,24291 90370,63418 139820,86567l-525 -166421c-197217,-161993 -593869,-149284 -819480,25409 -501840,388572 -387763,1195318 93163,1434688 135175,67279 278163,102119 450313,75885 87017,-13259 135450,-36200 206248,-70523 75518,-36608 78370,-14043 68955,-205047z"/>
     <path class="fil1" d="M8172860 2876673l1509 -765277 -134391 275 -2560 670129c-147442,91137 -470127,13151 -616951,-161184 -134333,-159491 -215054,-386020 -162719,-653226 87776,-448154 515908,-652884 862551,-468526 33840,17996 105280,76727 127186,79604l901 -164069c-237628,-187936 -661848,-154721 -916462,102695 -441758,446619 -222526,1351607 410845,1428726 130780,15919 320184,3261 430091,-69147z"/>
     <polygon class="fil1" points="10046246,2928050 10601455,2929542 10601338,2785378 10191369,2784711 10190660,1325072 10046454,1319644 "/>
    </g>
    <g>
     <path class="fil1" d="M8953789 3057963c-61283,10874 -96507,6396 -161901,23783 -139570,37117 -257983,114936 -349854,212127 -199977,211527 -257958,588207 -112234,845598 95048,167872 217747,279865 395084,349495 107990,42404 200277,51843 331066,49025 383368,-8256 736124,-384385 690634,-792253 -35541,-318683 -213912,-544085 -477282,-640367 -79129,-28928 -227462,-63018 -315514,-47407zm101886 1354342c247493,-12242 436321,-184241 515858,-395118 86008,-228013 18212,-523646 -168389,-682070 -116237,-98684 -263937,-172258 -460387,-151986 -180522,18629 -314997,97616 -402222,200719 -93405,110416 -164837,270533 -148350,461112 15669,181023 94639,323102 197801,415448 117855,105488 250445,152678 465690,151895z"/>
     <path class="fil1" d="M12641028 3057579c-231899,40919 -305765,38176 -507344,239662 -108348,108298 -215788,334068 -191221,554617 48583,436195 371894,698406 810407,686140 262486,-7338 453340,-164036 578175,-346735 160125,-234350 138744,-638090 -46757,-849809 -77769,-88777 -6871,-19438 -94973,-95506 -67971,-58690 -126227,-103754 -231215,-142547 -74584,-27569 -230873,-61033 -317073,-45823zm5237 127378c-96132,16828 -128262,2693 -241747,63568 -63234,33915 -129838,82756 -170599,131731 -97341,116938 -159458,269883 -148809,466566 9056,167180 83707,307175 196425,410303 362737,331883 1044582,132398 1016305,-514240 -7472,-171033 -94214,-307225 -198534,-407001 -85500,-81780 -284876,-180347 -453040,-150927z"/>
     <path class="fil1" d="M9919193 3137100l-8 1379910 138894 -534 -125 -498513c6655,7463 5537,5162 11449,17904 4420,9515 5587,13484 9473,25242 52919,159750 141904,308893 286602,397836 46648,28669 110833,73833 171099,82456l-309 -149293c-112960,-51085 -256665,-176445 -292640,-311661 51677,-57714 147542,-105863 224702,-241230 177929,-312145 -39835,-774174 -548872,-757930l-267 55813zm138419 858373c103895,-53161 136793,-65269 210468,-139745 56113,-56722 105213,-127720 110542,-234259 10649,-212727 -137001,-350529 -319850,-382951l-1159 756954z"/>
     <path class="fil1" d="M13606365 4516909l144848 884 -117 -1215840c138285,61992 336361,322844 406775,480701 89561,200786 127420,426847 130222,644645 417,32589 -9323,43813 -5112,88326l135175 2227 2243 -1435647 -137310 -1459 17220 704794c-75560,-197184 -103962,-236077 -222417,-380891 -19338,-23649 -19672,-29954 -42262,-52702 -73892,-74409 -299294,-266531 -429341,-291030l75 1455994z"/>
     <path class="fil1" d="M7957139 3722621l-632795 917 -2802 -638974 -137518 -4578 -692 1437615 138302 -1184 183 -667369 633221 -417 2794 667977 133540 1651c10607,-45856 11833,-1380852 467,-1437974l-131097 267 -3602 642068z"/>
     <path class="fil1" d="M11076418 3139993l30938 121599c92780,-16161 110617,-44647 276404,-64060 76452,-8948 223668,-42 275837,43429 -26776,86125 -603734,1123494 -617602,1185661 97483,83381 258725,111317 412229,111434 179155,142 273293,-58723 411604,-116721 -6663,-22140 -13342,-40769 -22190,-64485l-14918 -35891c-11499,-20631 -2744,-6830 -11116,-16286 -92713,38293 -158682,74008 -269407,94556 -105980,19663 -235568,6863 -311928,-41837 25476,-77528 581561,-1121468 600282,-1185670 -58681,-54629 -262886,-105130 -365114,-104829 -191038,559 -241855,26726 -395018,73100z"/>
     <path class="fil1" d="M10730751 4517068l137535 734 2693 -1435572 -140612 -2143c-10824,52752 -9732,1394303 384,1436982z"/>
    </g>
    <g>
     <path class="fil1" d="M10989918 4708756c-148100,26860 -231165,79912 -300537,165704 -257966,319033 -10457,814160 434544,760323 410620,-49675 546470,-579884 227679,-829962 -82864,-65002 -222100,-121382 -361687,-96065zm27760 79145c-140253,25701 -173593,43688 -250653,129638 -68171,76035 -93797,173051 -86625,300320 10732,190346 204897,369809 424688,337178 216105,-32097 346526,-195040 330457,-431792 -12959,-190813 -206840,-374003 -417866,-335344z"/>
     <path class="fil1" d="M11591225 5192083c1676,256207 226720,448362 490024,445043 249402,-3135 474680,-228146 453524,-486179 -13034,-159116 -59215,-226537 -147667,-316281 -252921,-256624 -795647,-134224 -795881,357417zm425897 -401714c-71624,13326 -82664,6763 -148284,44021 -350504,198985 -170390,790068 247851,719079 122041,-20714 184291,-63501 242965,-134608 211393,-256165 -1451,-691944 -342532,-628492z"/>
     <polygon class="fil1" points="9918000,5620248 10010171,5623600 10010221,5208736 10399035,5207335 10399802,5620206 10492006,5623667 10491572,4720722 10400127,4719305 10398393,5121969 10011806,5121827 10009821,4720555 9918609,4719063 "/>
     <path class="fil1" d="M9805207 5569939l2744 -89928c-39669,12358 -216113,147909 -422603,36375 -260001,-140437 -272952,-533136 -4720,-687682 55146,-31772 146124,-52152 222401,-42954 111909,13492 120532,42971 204672,76518 317,-86300 12634,-93597 -44939,-118197 -79112,-33815 -124918,-39026 -216146,-38976 -489240,300 -629560,690985 -180931,891604 126160,56422 331433,60007 439523,-26760z"/>
     <path class="fil1" d="M8730104 5622274l131030 1393c46156,-77419 80596,-109332 80838,-225478 475,-224244 -188186,-242448 -218089,-380233 -20572,-94764 20230,-174251 85967,-210251 113260,-62042 197676,5837 242523,16586l-634 -87309c-113435,-35507 -223385,-66895 -324720,22240 -71874,63234 -150243,186802 -80955,319508 72999,139820 271050,205864 184116,420059 -25626,63118 -69405,78045 -100076,123484z"/>
     <polygon class="fil1" points="12632848,5620632 12984561,5624134 12983327,5539093 12724760,5538276 12724518,4720364 12633656,4718879 "/>
    </g>
   </g>
   <g>
    <g>
     <path class="fil2" d="M2566280 3120347c-15127,34582 -59640,62050 -84991,92513 -14635,17595 -29178,26526 -42879,43513l-59432 77069c-10432,13734 -10499,10866 -20264,22707 -6388,7747 -11283,17820 -16469,26293l-23024 33323c-767,1117 -1751,2652 -2510,3769 -52327,77794 -91662,163928 -126377,250620 -4253,10641 -8481,17879 -12934,29412 -84199,218315 -99776,475530 -63943,703018 7997,50751 22232,86075 32105,138686 7130,38026 62392,229839 92396,259768 13067,13025 329932,108715 371368,116921 7322,1451 14118,3060 21681,2602l15077 -3502c1167,-325 3269,-1084 4728,-1960 -12617,-26218 -100101,-52310 -151327,-97341 -36183,-31797 -86759,-60291 -129346,-124126 -34207,-51260 -67888,-96374 -74375,-174385 -9273,-111576 36758,-256665 93163,-347627l4803 -7672c29345,-50826 71340,-90036 104212,-130163l13751 -17312c53653,-77869 137702,-141571 202529,-211777 27894,-30204 27010,-51426 84983,-46815 39410,56864 80696,134199 134041,178896 13359,-11032 29904,-26326 44747,-41687 34223,-35416 97358,-142688 135759,-144940 40577,-2368 94839,91971 131139,124284 18304,16294 23099,27369 35908,48149 40244,7230 42529,-5279 60908,-28694 27577,-35132 65786,-63551 90636,-100943 70498,-106105 88869,-3652 138077,53428 10916,12659 74567,90086 87759,96399 15169,-1126 7172,-609 14201,-3536 834,-342 13926,-7889 15244,-8981 24725,-20464 46807,-58089 68521,-79804 45914,-45914 93121,-161885 147975,-59048 12900,24175 67312,79704 88835,102544 21965,23307 19296,37876 67579,31588 15944,-25918 35416,-53511 55413,-80021l60483 -81864c55696,-4220 82114,43838 118455,75885l63768 66178c13551,14043 16269,21164 32172,35766l30687 31446c876,976 2093,2335 2960,3311l91495 106414c39277,54979 71106,99259 99226,161051 87034,191246 97333,348344 -41787,491683 -61250,63109 -91278,73258 -145707,120148 -23774,20489 -57272,33481 -85650,45147l-87885 43163c44072,759 94881,-4328 122625,-21590 33514,-20856 71598,-25859 115211,-39910 37992,-12242 80146,-27394 117972,-38576l110525 -42003c56697,-21731 60374,-93655 79179,-141321 27127,-68772 47024,-254906 56163,-334827 14018,-122475 15119,-300170 -18237,-423045 -5454,-20072 -5729,-45964 -11741,-64027 -17203,-51718 -33097,-121299 -56480,-170949 -31780,-67479 -62684,-144715 -101244,-208141 -18629,-30637 -43238,-62609 -60716,-96574 -14752,-33881 -137401,-165345 -169506,-198092l-72307 -64002c-11408,-8497 -16903,-10324 -29103,-20339 -19213,-15761 -32722,-23516 -51068,-41328 -15002,-14552 -35074,-27152 -54562,-38660 -13943,-8247 -15594,-8698 -26902,-16336l-177328 -100335c-13793,-5045 -27585,-4928 -40619,-9882l-135425 -49192c-21490,-8823 -61700,-9356 -81305,-13859 -248143,-56972 -517576,-43588 -727534,40010l-258667 113418 -111425 74167c-22223,15702 -93814,78003 -105388,81897z"/>
     <path class="fil0" d="M3032412 5128165c76193,-30454 56422,-47749 201428,-74384 191905,-35249 476189,-15169 663066,55938 23399,8906 32972,10849 38234,30304l63518 -39160c58473,-33147 65953,-20481 93563,-37192 54170,-32789 98850,-36591 116537,-70931 -73633,-7272 -163477,16661 -228697,22899 -24825,2368 -155005,10849 -173192,29512l-8698 16211c-22115,-1493 -58490,-7905 -79929,-12358l-53745 -6988c-43821,-10249 36166,13734 -11733,-3769l-11133 -5654c34940,-29020 55438,-542 77586,-35941 -110141,28186 -185542,13559 -302321,13342 -66478,-125 -85199,7205 -147050,-10332 -42287,-11991 -80029,-30362 -109766,-50743 -61892,-42395 -107523,-95807 -148225,-172817 -35566,-67296 -66303,-167755 -53962,-259567 35407,-263412 301046,-481785 453774,-664242 20214,-24141 54112,-71273 73283,-85074 28194,12725 30763,40811 50576,70798 65536,99192 289905,295125 394976,501498 30879,60641 53653,111434 69264,183641 29770,137743 -48066,255640 -124801,361278 -47682,65628 -108006,82948 -137009,104487 -9298,6905 -4353,2268 -11116,9748 13092,-1076 16786,-3711 24450,-4069l22040 2385c11666,2960 25909,17037 51852,-1543l-32397 -367c28653,-40502 123575,-90370 187552,-216030 107731,-211627 14993,-411354 -118022,-587431l-178654 -216497c8806,-23824 155772,-189353 172483,-198551 18838,9281 211018,237111 233466,262153 67679,75493 140870,192188 189578,304431 63743,146908 40919,272501 -35874,390189 -90895,139311 -141896,153787 -251354,210893l-21073 14893 45764 6163c625,459 2618,1368 3803,2243l6621 11166c8931,17445 3903,5062 2302,6346 19180,-9690 115078,-29837 146858,-19905 34257,10707 -24066,11533 69380,1751 22657,-2368 55629,-4019 77327,-8831l68496 -18079c24158,-5204 39543,-14818 61633,-23408 48916,-19030 74926,-33456 131372,-43388 31071,-5470 44864,-17278 70581,-26935l24066 -7388c28269,-9198 70456,-21406 89586,-38384 14151,-12559 71332,-230590 74559,-268882 3252,-38543 13251,-37726 17412,-74492 17378,-153379 28661,-325587 5871,-485762 -11474,-80630 -26843,-144264 -47132,-219198 -16278,-60099 1910,-34657 -19655,-64877l-14351 -31079c-12667,-39810 -26118,-46665 -37976,-92454 -7588,-29328 -16336,-33473 -29854,-54695 -11074,-17378 -18229,-36591 -32389,-53528 -14393,-17220 -52594,-83790 -63810,-90570l-13934 -2060c17479,33965 42087,65936 60716,96574 38559,63426 69464,140662 101244,208141 23383,49650 39277,119231 56480,170949 6012,18062 6288,43955 11741,64027 33356,122875 32255,300570 18237,423045 -9140,79921 -29036,266055 -56163,334827 -18804,47666 -22482,119589 -79179,141321l-110525 42003c-37826,11183 -79979,26335 -117972,38576 -43613,14051 -81697,19055 -115211,39910 -27744,17262 -78553,22348 -122625,21590l87885 -43163c28378,-11666 61875,-24658 85650,-45147 54429,-46890 84457,-57039 145707,-120148 139119,-143339 128821,-300437 41787,-491683 -28119,-61792 -59949,-106072 -99226,-161051l-91495 -106414c-867,-976 -2085,-2335 -2960,-3311l-30687 -31446c-15902,-14602 -18621,-21723 -32172,-35766l-63768 -66178c-36341,-32047 -62759,-80104 -118455,-75885l-60483 81864c-19997,26510 -39468,54103 -55413,80021 -48283,6288 -45614,-8281 -67579,-31588 -21523,-22840 -75935,-78370 -88835,-102544 -54854,-102836 -102061,13134 -147975,59048 -21715,21715 -43796,59340 -68521,79804 -1318,1092 -14410,8639 -15244,8981 -7030,2927 967,2410 -14201,3536 -13192,-6313 -76844,-83740 -87759,-96399 -49208,-57080 -67579,-159533 -138077,-53428 -24850,37392 -63059,65811 -90636,100943 -18379,23416 -20664,35924 -60908,28694 -12809,-20781 -17604,-31855 -35908,-48149 -36300,-32314 -90561,-126652 -131139,-124284 -38401,2252 -101535,109524 -135759,144940 -14843,15360 -31388,30654 -44747,41687 -53344,-44697 -94631,-122033 -134041,-178896 -57973,-4611 -57089,16611 -84983,46815 -64827,70206 -148876,133907 -202529,211777l-13751 17312c-32872,40127 -74867,79337 -104212,130163l-4803 7672c-56405,90962 -102436,236052 -93163,347627 6488,78011 40169,123125 74375,174385 42587,63835 93163,92329 129346,124126 51226,45030 138711,71123 151327,97341 -1459,876 -3561,1634 -4728,1960l-15077 3502c-7563,459 -14360,-1151 -21681,-2602 -41436,-8206 -358301,-103895 -371368,-116921 -30004,-29929 -85266,-221742 -92396,-259768 -9873,-52611 -24108,-87935 -32105,-138686 -35833,-227487 -20255,-484703 63943,-703018 4453,-11533 8681,-18771 12934,-29412 34715,-86692 74050,-172825 126377,-250620 759,-1117 1743,-2652 2510,-3769l23024 -33323c5187,-8472 10082,-18546 16469,-26293 9765,-11841 9832,-8973 20264,-22707l59432 -77069c13701,-16987 28244,-25918 42879,-43513 25351,-30462 69864,-57931 84991,-92513 -42104,10866 -85958,74067 -107623,94764 -50859,48600 -43521,51918 -61033,69022 -38951,38051 -85358,106489 -110283,155297 -11941,23383 -20039,22440 -29178,37934 -11166,18921 -892,20472 -21623,47957 -18329,24308 -10641,14418 -21448,45022 -6880,19488 -10991,24575 -22015,40694 -19263,28152 -8064,12208 -17487,48500 -12692,48866 -5062,-15869 -28920,70106l-19939 79779c-4553,16244 -13517,33840 -16386,50009 -8389,47307 -5220,75409 -19505,118705 -15611,47340 -14001,332033 -4862,370651l6112 17612c475,1568 1026,3160 1484,4787l40577 194332c12750,49492 20772,55679 18604,120765 83073,70673 -2060,6579 44780,88043 650,1117 1801,2527 2485,3644 34015,55421 19872,41662 69605,57381l277229 89069c18813,8397 -18571,-3311 12675,4386l138602 28836c58973,13659 32389,27277 48174,47190l72032 31004c15485,6137 26860,7922 41995,14135 41019,16853 43346,17262 68038,37834 21898,18254 60641,7080 77786,33498 1509,-15677 15127,-21098 37459,-24808 -6329,22707 -2827,11591 -11208,31671z"/>
     <path class="fil1" d="M643836 4772858c69247,61091 1147969,589950 1308995,672455 351530,180114 794772,392457 1154540,576682l151611 77352c7955,6563 4061,2935 8547,9273 -199160,108907 -524464,262486 -746956,371685 -36516,17920 -74659,42095 -110858,51885 13376,14126 -9315,6371 24575,16428 7388,2193 290280,20481 320842,5762 72532,-34932 145282,-75626 216780,-111167 145674,-72407 292615,-147100 436904,-219015 72524,-36149 53753,-26084 218114,57481l542484 275045c32055,11958 288946,-8839 344725,-11558l-23574 -20080c-10382,-5812 -19055,-8764 -29103,-13676l-160776 -80496c-72299,-35783 -137777,-66737 -216071,-105480 -72357,-35816 -141337,-71081 -214620,-107056 -68855,-33798 -155222,-85049 -218798,-108915 22298,-28953 636373,-324278 656745,-334385l1317843 -662148c105054,-52260 566284,-273494 650899,-340072 1434,-72074 -20414,-133540 -94055,-131364 -33648,992 -58148,13601 -76318,37200 -26068,33865 -14710,55638 -9565,93839 -136409,3236 -106297,-16770 -208858,33214 -55721,27160 -106556,52761 -160792,80805 -107506,55596 -217714,105413 -323461,159341 -216847,110600 -429674,215896 -647322,323703 -126252,62542 -1275572,639016 -1296053,639183 -30896,250 -1676519,-833765 -1939514,-960809l-483861 -240171c-95023,-48975 -92713,-32297 -213395,-35416 7513,-48708 15752,-122800 -79837,-130605 -75593,-6171 -102186,56538 -99818,131080z"/>
     <path class="fil3" d="M3288702 1064279c-8197,69030 26868,56455 26726,140370 -384,233033 -29728,244224 38543,451731 18946,57589 36850,110500 56697,166296 40044,112551 10374,83873 6888,179772 -4628,127445 -59073,248960 -25534,396002 7538,33072 37192,157632 47874,175227 19030,31363 26968,36208 69681,39377 122975,9123 92996,46715 158124,-180797 29962,-104696 137243,-147883 239671,-230022 59966,-48091 58690,-61792 92930,-142522 40469,-95431 162135,-220466 258050,-447470 10032,-23741 8589,-15627 10507,-40069 3060,-38935 6563,-10916 14435,-40352 7880,-29412 -3427,-81205 -3452,-116913 -33,-56980 91404,-158591 90303,-216030 -72791,-26543 -168131,-49442 -246659,-70139 -38918,-10257 -87393,-20447 -126986,-26927 -55621,-9106 -81764,-19597 -137652,-25159 -42862,-4270 -88402,-9323 -136818,-15335 -66086,-8206 -214996,-10565 -288796,-2794 -58006,6104 -90211,-5037 -144531,5754z"/>
     <path class="fil3" d="M3130645 2662361c3611,-43805 -867,-88643 3644,-131973 2051,-19705 1751,-44430 5387,-62634 11383,-57114 20431,-53153 9048,-116554 -5912,-32972 1259,-37550 1701,-64544 575,-36291 -13051,-84124 -13134,-154396 -75,-64410 25134,-111242 47182,-183908 6021,-19830 27827,-44130 27719,-112926 -317,-193898 -87309,-298244 -37784,-470877 18387,-64068 31872,-171891 22373,-231098 -13568,-84541 -35999,-63376 -186676,-32072 -291164,60491 -454700,116812 -708238,243823 -41111,20597 -67679,16870 -51301,79596 23541,90119 1943,138494 71273,200244 69130,61575 64794,45506 120640,151711 16011,30446 29712,53703 46982,88627 61850,125051 199769,126536 374445,578208 15952,41261 54445,176553 72766,199644 60466,76185 104688,47982 193973,19130z"/>
     <path class="fil3" d="M3719219 4996651l7622 2018c6763,-7480 1818,-2844 11116,-9748 29003,-21540 89327,-38860 137009,-104487 76735,-105638 154571,-223535 124801,-361278 -15611,-72207 -38384,-123000 -69264,-183641 -105071,-206373 -329440,-402306 -394976,-501498 -19813,-29987 -22382,-58073 -50576,-70798 -19171,13801 -53069,60933 -73283,85074 -152728,182457 -418367,400830 -453774,664242 -12342,91812 18396,192272 53962,259567 40703,77010 86333,130422 148225,172817 29737,20380 67479,38751 109766,50743 61850,17537 80571,10207 147050,10332 116779,217 192180,14843 302321,-13342z"/>
     <path class="fil1" d="M1216591 4753619c28603,21356 1222303,619153 1320728,669670l530518 267348c50101,25109 231682,123892 269766,134633 2410,-53937 2877,-74609 38668,-103612 12959,-10490 24767,-19230 42120,-25642l42812 -13051c8514,-3794 7088,-3119 12634,-7230 -12475,-84099 -100426,-190562 -149168,-248051 -118956,-140295 -318891,-251429 -486046,-318182 -104746,-41837 -184650,-78612 -281532,-120498 -332417,-143714 -762783,-240480 -1033433,-364280 -37784,-17287 -103654,-50893 -143122,-62109 -47524,83932 -40869,86692 -123592,141613 -24925,16545 -29687,23249 -40352,49392z"/>
     <path class="fil1" d="M3493299 5680564c89077,17670 138652,44455 140537,144248 21306,-4687 107089,-52035 132748,-65228 45606,-23449 85900,-42937 132148,-66003l266505 -135433c333367,-157173 720188,-365965 1060635,-535613 145599,-72549 387963,-203229 529467,-267006 -20772,-47766 -51560,-57147 -93088,-87151 -28403,-20514 -55896,-74067 -73191,-105980l-284001 118305c-186109,69772 -412187,136009 -605068,200252 -158883,52928 -703943,286744 -834965,370643 -125151,80129 -325537,264271 -371727,428966z"/>
     <path class="fil3" d="M4415365 1526217c9206,154655 12659,226337 -98642,380066 -149101,205948 -102620,257908 -177670,391757 -52702,94005 -206423,142280 -195457,378631 152270,119247 251078,-17837 337220,-138694 83423,-117063 122775,-117254 245883,-186910 48233,-27293 47874,-21048 84249,-64210 84115,-99801 199352,-210076 263328,-312070 48183,-76810 119031,-184350 178671,-254072 79020,-92396 102519,-79087 -73091,-204947 -79612,-57055 -417775,-260877 -498546,-260001 -44880,51718 -72341,176303 -65945,270450z"/>
     <path class="fil3" d="M1136345 2540404c14401,18946 48916,39210 68897,52477l137877 115512c72416,91445 27610,93947 163002,220766 18429,17262 46873,47691 74317,56180 51368,15877 169165,35199 203913,49025 45372,18062 315389,243548 364714,278705 41953,29887 69164,8456 87935,-16603 77144,-102970 69681,-52177 -38476,-230940 -57797,-95540 -88110,-209684 -159116,-347394 -16628,-32255 -21423,-53386 -29970,-93955 -31588,-149960 -143272,-278238 -261027,-370184 -55754,-43529 -212886,-200778 -267923,-238653 -65119,53203 -306291,438814 -344141,525064z"/>
     <path class="fil3" d="M4803845 3351086c4970,23057 70614,154988 85466,170957 21348,-7847 48258,-22082 68747,-28428 72174,-22382 263095,-18821 385036,-109833 58056,-43329 -17971,-33223 105421,-92504 24308,-11683 183758,-92921 202487,-94205 19613,-1351 23091,4028 42087,3928 10874,-58 28069,-3135 43613,-4370 80705,-6421 100935,-2485 165395,-33548 45406,-21881 100526,-39035 138561,-66111 -2710,-49367 -34765,-131372 -52144,-177303l-120640 -336536c-16895,-50451 -61300,-104929 -81280,-155172 -46298,4620 -206065,65303 -263095,90603 -29728,13184 -43755,36850 -67321,56713 -61633,51960 -58998,69689 -93855,141204 -37817,77586 -118113,245633 -173809,302355l-235976 240388c-60466,60883 -67404,50734 -148692,91862z"/>
     <path class="fil3" d="M879354 3647854c248435,-39593 97574,-6304 285435,-13426 45689,-1726 89169,-17504 130013,-18404 41178,-917 90736,13768 130455,18729 60516,7563 83373,1309 135775,2368 27694,559 32789,8331 58806,13076 24233,4411 43805,2852 66312,7647 38660,8247 76135,26026 109324,39735 54787,22640 163219,75459 220808,70848 14451,-37475 22098,-59082 28553,-102369 7597,-51018 -8623,-48083 -41737,-77202l-140011 -126052c-71465,-79454 -102144,-194048 -275011,-251053 -109341,-36058 -93397,-23583 -159541,-99826 -39568,-45614 -74859,-102544 -104988,-160709 -83181,-160592 -23366,-104537 -158457,-237778 -20405,-20130 -39435,-55354 -80571,-54712 -21957,41828 -59682,169106 -74033,221809 -21581,79237 -44505,154947 -62184,235626 -32781,149651 -81630,359093 -68947,531693z"/>
     <path class="fil3" d="M2710486 2837247c-5487,-44280 -46515,-64869 -56513,-84290 -6563,-12742 -5787,-20539 -13634,-35924 -99442,-194924 -40261,-115670 -50051,-232332 -2735,-32580 -12992,-18421 -21898,-55504 -25442,-105988 -85291,-176336 -88293,-182974 -8047,-17787 -26410,-124201 -86484,-161209 -93038,-57305 -61550,-107523 -101786,-200811 -40202,-93230 -52369,-87251 -95815,-206890 -16069,-44238 -4603,10974 -26501,-73391 -6796,-26184 -14677,-45439 -22782,-75401l-26735 -60057c-776,-1084 -2043,-2710 -2760,-3694l-5712 -7497c-39694,15761 -390681,288370 -452323,364805 -29362,36416 -164278,92905 63159,211126 140262,72908 246550,153671 368374,249686 83890,66120 114077,133340 159583,248577 68663,173868 70381,223343 220274,392032 34056,38334 33815,71598 125110,8214 24367,-16920 100343,-75059 114786,-94464z"/>
     <path class="fil3" d="M4382685 2905268c15511,19613 171116,147467 184925,154330 62334,-48525 10757,-65736 123492,-111200 95023,-38318 217447,-114719 263061,-207224 25401,-51510 59882,-110633 86625,-154713 77928,-128495 166688,-127378 281624,-194473 134858,-78728 224786,-97032 378031,-99776 -10565,-76769 -152895,-233425 -196925,-285302l-236819 -252429c-21189,9548 -111209,115537 -118956,135775 -41937,109524 -18504,184400 -170724,335811 -195849,194807 -191855,143280 -371452,389255l-85124 100560c-54362,51969 -118547,62801 -137760,189387z"/>
     <path class="fil3" d="M4994049 3838825l19705 178287c67404,1226 65177,-24008 142296,-11283 28736,4737 130914,-592 162593,-3986 117846,-12600 180998,6029 290188,34215 65077,16795 78128,-1201 126686,-25184l226687 -107464c63793,-27327 59298,-28728 141071,-32239 3878,-125235 -16736,-505351 -37726,-619995 -41461,9540 -92012,43788 -138927,65961 -47641,22515 -98925,41770 -148951,61408 -81905,32163 -132982,60182 -209033,100360 -51827,27377 -34632,90111 -85466,118722 -25809,14527 -44455,22590 -68838,36600l-339438 180114c-23883,11316 -54912,15202 -80846,24483z"/>
     <path class="fil3" d="M4911435 4731329c106731,-8798 692694,-245867 733814,-250203 41728,67554 43338,104079 96907,144414 44605,33598 91954,76385 155864,92713 20289,-51843 44238,-108382 65603,-164511 55838,-146691 130280,-431442 120173,-585605 -32664,8447 -54862,21740 -87985,36491 -41653,18554 -43238,23424 -75926,48324 -25526,19438 -188920,149751 -217272,159375 -55663,18879 -168406,21039 -229105,6321 -103829,-25184 -42896,-65586 -289780,19480l-139036 46140c-28644,10691 -22565,6955 -30846,38534 -18071,68922 -97574,363555 -102411,408527z"/>
     <path class="fil3" d="M929379 4273769c65027,-6730 126277,-24308 191029,-34707 254656,-40894 127153,-51318 409327,-2944 130330,22348 66220,29728 216688,-1726 38785,-8114 178413,-26935 195974,-57356 24175,-41870 36174,-162777 30654,-218590 -67120,-8606 -153037,-18054 -212219,-34448 -156706,-43413 -217706,-115637 -359919,-135909 -37434,-5337 -70815,-10857 -104963,-18638 -54587,-12433 -55754,-2143 -112518,-4545 -57889,-2452 -148100,-53328 -194790,-47691 -17070,2060 -94122,17145 -101052,24083 -12659,12667 -19155,198860 -20197,227796 -1985,55112 -492,47849 11750,99217 15127,63435 40552,145107 50234,205456z"/>
     <path class="fil3" d="M4020456 4967531c136701,-8297 320517,-78762 417700,-144873 85591,-58223 158349,-131247 198735,-227512 73116,-174293 -65253,-408735 -156631,-520352 -38509,-47032 -252996,-279381 -283842,-293315 -18771,11983 -121182,156748 -130313,181264 49734,76960 100852,129313 162477,234109 120373,204705 169882,375913 3844,587281 -33223,42287 -58481,66587 -97066,100843 -19497,17303 -94914,77544 -114903,82556z"/>
     <path class="fil3" d="M3825182 4995442l145707 -36316 21073 -14893c109457,-57105 160459,-71582 251354,-210893 76794,-117688 99617,-243281 35874,-390189 -48708,-112243 -121899,-228938 -189578,-304431 -22449,-25042 -214629,-252871 -233466,-262153 -16711,9198 -163678,174727 -172483,198551l178654 216497c133015,176078 225753,375805 118022,587431 -63977,125660 -158899,175527 -187552,216030l32397 367z"/>
     <path class="fil3" d="M2940450 4956540c-83223,-60132 -144431,-103462 -206948,-187193 -207124,-277421 -49150,-504583 129830,-753519 13693,-19046 36733,-39577 45598,-59265 -12342,-28811 -71732,-104437 -96198,-138352 -4837,-6705 -10649,-15094 -15452,-21423 -16728,-22048 -4486,-13351 -23783,-20472l-138986 140245c-46223,45347 -93547,94973 -136643,148009 -85008,104613 -164762,227454 -179096,388138 -30262,339021 495702,519994 621679,503833z"/>
     <path class="fil3" d="M3176326 4990063c-25792,-26460 -61475,-46040 -91629,-76852 -91787,-93805 -149218,-217589 -151177,-362979l-83 -6188c-2135,-157682 146816,-351313 239270,-460403 26710,-31513 89060,-89035 109457,-127078l-144923 -172425c-28561,-31446 -58690,25542 -81830,52319 -27302,31621 -48249,56822 -74434,86092 -117913,131789 -183324,204247 -265572,371335 -38634,78486 -72491,148717 -55513,251962 40261,244791 275203,433152 516433,444218z"/>
     <path class="fil3" d="M979372 4356476c-8414,-8 -11633,-1618 -19772,-3661 2668,40027 86600,288420 104696,342240 69489,-5696 118030,-10232 177045,-80921l115411 -137993c23299,-8206 665751,262745 721580,257449 -6371,-23341 -20431,-41953 -31313,-68580 -10807,-26468 -16411,-59132 -26485,-85750 -25634,-67679 -30112,-112610 -40069,-175786 -52861,-10699 -222984,-6288 -295817,-6238 -93030,25 -99559,-8481 -177337,-28411 -100860,-25851 -133257,-22757 -230981,-22690 -46498,17 -95415,15277 -141929,18154 -54812,3386 -104229,-7789 -155030,-7814z"/>
     <path class="fil3" d="M3032412 5128165l120565 87843c84165,67279 279948,242022 301921,341765l60958 1926c13167,-20397 20506,-47407 35808,-70956 13959,-21473 29145,-39735 45247,-59841 68847,-85933 252396,-272901 338229,-288879 -5262,-19455 -14835,-21398 -38234,-30304 -186877,-71106 -471161,-91187 -663066,-55938 -145007,26635 -125235,43930 -201428,74384z"/>
    </g>
    <circle class="fil4" cx="3502817" cy="3617266" r="2587193"/>
    <path class="fil5" d="M1364908 1431878l-20497 -39977 53303 -51210c-13159,-617 -25467,-3027 -36942,-7355 -11349,-4920 -20789,-11391 -28428,-19296 -21248,-22165 -30763,-49325 -28795,-81847 2443,-32047 15652,-59649 39844,-82806 19405,-21248 51360,-33039 96082,-35466 44972,-2802 95898,3986 152678,20347l-2894 17695c-46031,-10007 -87759,-12834 -125076,-8105 -36600,4595 -64369,16036 -83415,34173 -17845,17195 -26968,38226 -27127,62859 -884,24625 7330,45931 24517,63893 5254,5512 11583,9707 18996,12584 6688,2894 13743,3978 21281,3511l60491 -58131 20506 39977 -43971 42254 115487 225019 91028 -10732 1993 22849 -142597 27502 -112501 -219991 -43963 42254z"/>
    <path id="_1" class="fil5" d="M1512616 1293117l-16520 -41678 368066 -290639 16520 41803 -47824 37709 94681 240404 97449 -3911 1534 30846 -150644 9356 -38593 -97449c-3811,5987 -7972,10782 -12383,14393 -7522,5879 -16478,10457 -26626,13718 -9673,3261 -19838,4611 -30596,4053 4361,17203 2744,35140 -4845,54070 -7955,18437 -20572,34507 -37867,48074 -13476,10691 -23624,17178 -30312,19355 29120,15444 60591,23241 94197,23357 33956,609 67187,-6321 99542,-20897l3002 38618c-56530,12383 -119431,13317 -188703,2777 -69505,-10165 -113694,-27118 -132306,-50734 -6246,-7872 -9140,-16236 -8814,-25084 -392,-8839 2693,-15786 9140,-20831 8581,-6855 21014,-8806 37409,-5871 16153,3652 32797,11608 49709,23749 6805,-2302 14085,-6504 21957,-12742 18729,-14777 29670,-33706 32697,-56914 3394,-22740 -2060,-43054 -16228,-61066 -11524,-14660 -24008,-24667 -37292,-30004l-146349 115537zm168764 -133307c25742,7205 47199,21598 64369,43313 4203,5245 8898,14318 14201,27218 10157,-2543 18988,-6763 26501,-12650 14668,-11650 25142,-27227 31546,-46857l-35824 -90528 -100793 79504z"/>
    <path id="_2" class="fil5" d="M1990340 1125604c-7905,-13626 -9123,-29537 -3511,-47716 5721,-18779 16586,-36124 32714,-52052 -13634,-2618 -25834,-7147 -36717,-13593 -10774,-7046 -18913,-15527 -24658,-25451 -12942,-22348 -14635,-46748 -5212,-73308 9181,-26184 26735,-46898 52794,-61984 14468,-8389 32881,-10082 55004,-5312 22132,4878 36850,13718 44280,26626 6946,11950 7430,25225 1459,39702 -5721,14952 -16236,26801 -31530,35657 -10766,6229 -22840,8272 -36233,6137 -13392,-2260 -25476,-8231 -36133,-18137 -2143,7880 -2493,16378 -1051,25467 1443,9081 4795,18287 10073,27377 3828,6571 8381,11708 13759,15169 4912,3828 10057,5495 15435,5254 5020,-5746 19480,-15444 43504,-29345l36383 32739c-31430,18204 -55337,39026 -71699,62242 -16361,23341 -20414,42120 -12025,56697 3352,5737 9815,8839 19497,9306 9448,117 19138,-2760 29061,-8514 19838,-11499 37634,-26943 53403,-46565 15894,-20222 29261,-43429 40119,-69639l17287 72933c-16953,34573 -37851,59115 -62717,73483 -21515,12458 -47574,14635 -78320,6404 -31096,-7980 -52752,-22549 -64969,-43580zm16303 -212402c7180,5737 14126,9673 20939,11816 7180,1910 12684,1793 16386,-367 9923,-5754 16369,-13651 19472,-23583 3703,-9923 2969,-19246 -2060,-27852 -1918,-3352 -5270,-5262 -9932,-5854 -4428,-834 -8856,133 -13392,2760 -8247,4795 -15177,11016 -20672,18554 -5612,7664 -9190,15802 -10741,24525z"/>
    <path id="_3" class="fil5" d="M2154401 871123l-6238 -44455 306399 -140495 6246 44447 -85400 39243 10357 74075c1743,11833 -1301,23691 -9006,35691 -7830,11533 -18888,20564 -33331,27110l-58673 26885c-18604,8606 -32163,21598 -40436,39101 -8030,17862 -8406,34840 -1017,50951 6546,14310 17837,24166 33890,29337 16411,4687 32547,3286 48658,-4111 19080,-8723 36108,-20539 50976,-35216 -7805,-5337 -13467,-11991 -16978,-19747 -4603,-10023 -4420,-20422 659,-31096 5070,-10799 13517,-18854 25209,-24183 12634,-5821 25192,-6613 37659,-2252 12817,3986 22073,11950 27402,23633 3994,8706 4770,18871 2201,30604 -2076,11491 -7280,23007 -15569,34774l73391 56972 -26626 28019 -65194 -64802c-14743,14677 -30704,25893 -47632,33765 -28269,12959 -59841,12909 -94722,-50 -34749,-12950 -58665,-33498 -71624,-61758 -11141,-24333 -11057,-49333 284,-75109 11083,-26134 30220,-45372 57064,-57731l45673 -20948c4770,-2185 8581,-6029 11299,-11433 2593,-5871 3394,-12100 2518,-18546l-5112 -37042 -162327 74367z"/>
    <path id="_4" class="fil5" d="M2368863 671897c-8014,-23549 -8614,-45681 -1559,-66253 6930,-21164 19246,-34673 36825,-40778 28936,-9923 59315,-5987 91245,11825 32289,17220 58598,44363 78812,81313l81438 -27986 1793 44839 -57631 19863 10299 254347 78336 33715 -8964 18179 -130714 -38376 -9948 -246817 -57639 19855 -1801 -44964 69839 -24041c-12317,-24033 -30504,-41378 -54295,-51768 -23799,-10532 -47474,-11725 -71031,-3711 -12200,4186 -21164,11841 -27027,22966 -5862,10641 -6930,21648 -2985,32889 2385,7297 5504,13267 9206,18054 3836,5262 8014,9448 12559,12442l-23674 8131c-4545,-2994 -8848,-7297 -12917,-13034 -3953,-5746 -7297,-12550 -10165,-20689z"/>
    <path id="_5" class="fil5" d="M2687137 640200c-3102,-13984 842,-27502 12208,-40294 11241,-12909 26418,-21523 45556,-25943 11608,-2635 23916,-1318 36950,4061 13517,5746 25959,14710 37075,26785l27619 34207 -9089 127119 92196 -21164 8973 -134416 -74134 16978 2985 -44839 196475 -44964 -2985 44855 -59440 13501 -16503 252446 89928 38985 -11716 29178 -141596 -55854 4545 -63618 -97099 22365 -2510 37317c-600,8005 -3236,14702 -7897,20197 -4061,5862 -9331,9448 -15777,11007 -13993,3110 -30262,-3469 -48683,-19855 -18529,-16261 -29887,-34081 -34315,-53094 -1318,-5620 359,-11116 5028,-16620 4186,-5387 10157,-8973 18179,-10766l31455 -7288 7046 -94239c-23799,959 -44722,-2744 -62893,-11366 -17704,-8723 -28227,-20330 -31580,-34682zm95907 26560l2518 -46882c484,-4545 -484,-8489 -2752,-11958 -2277,-3344 -5020,-4661 -8247,-3944 -11716,2627 -20689,8372 -27027,17220 -6821,8372 -9215,17579 -6946,27377 1684,7422 6696,12925 14835,16394 8131,3586 17337,4186 27619,1793z"/>
    <path id="_6" class="fil5" d="M2923246 476865c-4420,-23541 617,-45089 14977,-64777 13893,-19555 32972,-31613 57464,-36166 17445,-3202 34323,-50 50634,9548 16903,10082 30020,24367 39318,43096l-19180 14443c-3753,-9907 -9773,-17529 -18046,-22865 -8764,-5212 -17854,-6846 -27302,-5120 -18279,3319 -32939,12367 -43871,27010 -10807,15119 -14543,31396 -11341,48841 4545,24375 17095,46440 37759,65936l-24733 4553c-14518,-10449 -26776,-22941 -36783,-37726 -9515,-14652 -15811,-30287 -18896,-46773z"/>
    <path id="_7" class="fil5" d="M3084080 588749l7480 -44263 346485 -43054 -7472 44247 -60499 7505 -43529 254773 82331 40311 -14668 27168 -131622 -59615 6404 -35399c-6079,9448 -14085,17120 -23883,23107 -9798,6112 -20439,9832 -31797,11283 -21881,2668 -45331,-5796 -70348,-25250 -25142,-19572 -38918,-40244 -41703,-62000 -3753,-29895 4345,-56688 24041,-80279 19705,-23708 45389,-37492 77194,-41486 15185,-1810 30621,75 46290,5912 16036,5604 30629,14677 43805,26968l13526 -77511 -222034 27585zm67437 165045c851,6696 4561,12192 11383,16611 6830,4053 14718,5470 23683,4270 24275,-2910 47457,-15977 69672,-38968 22082,-22982 31980,-44172 29562,-63660 -1092,-8964 -5045,-16136 -11991,-21631 -6938,-5370 -14952,-7505 -23925,-6421 -30371,3753 -55337,16578 -74801,38259 -18988,21073 -26843,44997 -23583,71540z"/>
    <path id="_8" class="fil5" d="M3464104 557678l13826 -42662 359902 8239 -13951 42779 -60875 -1393 -78745 241981 74667 59173 -18396 21048 -116170 -95848 37025 -113977 -106089 -2393c-14827,-384 -27594,4370 -38284,14135 -10707,9273 -16253,20914 -16636,34790 -442,22966 5696,46481 18529,70665 12367,24200 30212,46673 53678,67212l-25584 20973c-29295,-36516 -51535,-70798 -66578,-102636 -15511,-31947 -22999,-59390 -22432,-82364 567,-22840 9281,-42028 26401,-57456 17112,-15777 37634,-23449 61558,-22899l133957 3052 18629 -56930 -234434 -5487z"/>
    <path id="_9" class="fil5" d="M3768861 472345c3144,-24642 12383,-44705 27836,-60116 15444,-15877 32439,-22674 50968,-20255 30371,3744 55938,20764 76702,50809 21364,29687 32914,65578 34890,107681l85358 10757 -18229 41111 -60499 -7622 -103045 232808 55513 64777 -16044 12408 -100443 -92221 100059 -225870 -60499 -7622 18237 -40986 73283 9190c-559,-27027 -9131,-50476 -25851,-70473 -16828,-19997 -37500,-31505 -62125,-34532 -12800,-1693 -24283,1284 -34340,8681 -10057,6921 -15811,16244 -17262,28202 -967,7530 -851,14226 334,20205 1067,6463 2977,11966 5837,16636l-24992 -3144c-2744,-4670 -4653,-10415 -5712,-17353 -1067,-6821 -1059,-14593 25,-23074z"/>
    <path id="_10" class="fil5" d="M4254773 653659l22290 -38960 71965 16803c-6688,-11358 -11333,-23082 -13959,-34924 -2018,-12325 -1768,-23799 759,-34448 6955,-29762 24558,-52702 52794,-68705 28236,-15519 58623,-19438 91137,-11750 28461,4570 55821,25050 82214,61191 26877,36133 48950,82556 66111,139136l-16378 7155c-16703,-44138 -37117,-80513 -61367,-109241 -23891,-28236 -48625,-45247 -74209,-51251 -24158,-5637 -46640,-1843 -67454,11416 -21181,12775 -34590,31305 -40244,55446 -1676,7413 -1810,15069 -133,22840 1301,7180 4161,13643 8706,19622l81655 19088 -22399 38968 -59298 -13809 -125777 219557 58765 70373 -18071 14210 -100818 -104613 123017 -214295 -59307 -13809z"/>
    <path id="_11" class="fil5" d="M4447937 708763l25859 -36742 331391 110066 -25859 36858 -57873 -19288 -148767 211301 56972 71799 -24892 18196 -93305 -110333 21123 -29295c-9531,5912 -20039,9440 -31513,10699 -11583,1259 -22715,8 -33614,-3636 -20847,-6938 -38418,-24542 -52686,-52919 -14268,-28503 -17879,-53119 -10941,-73958 9523,-28636 28186,-49308 56221,-62150 27911,-12950 57080,-14310 87509,-4195 14493,4820 27585,13234 39252,25125 12142,12016 21431,26426 27869,43263l45556 -64235 -212302 -70556zm-9998 178112c-2126,6346 -1126,12925 3094,19838 4461,6554 10949,11174 19580,14118 23116,7639 49650,5937 79612,-5345 29945,-11183 47924,-26109 54162,-44680 2819,-8623 2293,-16870 -1701,-24742 -3869,-7864 -10115,-13217 -18738,-16036 -29120,-9640 -57097,-8889 -83940,2268 -26251,10907 -43730,29061 -52069,54579z"/>
    <path id="_12" class="fil5" d="M4803720 848700l30954 -32422 356550 181498 -30954 32422 -54303 -27602 -175827 184108 36383 78795 -24141 7897 -64510 -121341 15410 -16278c-20914,7547 -42204,10657 -63493,9473 -21406,-1184 -41253,-6554 -59557,-15877 -21765,-10991 -39243,-30362 -52519,-58098 -13884,-27369 -16761,-49258 -8522,-65411 5854,-11474 17095,-19255 33598,-23207 16495,-3953 34190,-3002 53211,2969 -6338,-9682 -10299,-19488 -11733,-29295 -1434,-9807 -242,-18421 3461,-25592 5620,-11124 16495,-17704 32514,-19622 15794,-1684 32047,1776 48683,10265 14468,7397 27627,11583 39343,12775 12200,1309 19497,-484 22123,-5629 717,-1318 959,-3352 709,-6104 242,-2510 -117,-5620 -959,-9323l-126419 -64402zm157156 80054c1918,5737 2518,11958 1810,18646 -484,6104 -2268,12208 -5254,18187 -4545,8964 -14827,13392 -30971,13284 -16378,-350 -33840,-5128 -52144,-14443 -13159,-6813 -25709,-10157 -37434,-10274 -11483,-475 -18896,2402 -22123,8864 -2860,5504 -2744,11474 492,17937 2752,6213 7655,11116 14952,14818 22123,11349 39468,17679 52152,19346l-5128 44855c-32414,-16486 -62192,-26535 -89219,-30220 -27152,-3577 -43646,375 -49509,11858 -3102,5979 -2869,12559 492,19605 3344,7063 9089,12675 17228,16745 27268,13851 57881,20656 91846,20289 33965,-367 68046,-7805 102111,-22048l98258 -102886 -87559 -44564z"/>
    <path id="_13" class="fil5" d="M5181042 1058617l35324 -27627 332509 235451 -35441 27619 -49750 -35282 -200669 156723 26293 84482 -29103 10124 -53036 -129738 32714 -25217c-21640,1701 -42095,409 -61375,-3886 -18571,-4420 -35124,-11725 -49542,-21907 -20664,-14685 -33765,-40069 -39152,-76143 -5629,-36792 -926,-65653 14001,-86675 6629,-9373 16378,-17937 29470,-25676 12867,-7380 27894,-13351 45322,-18021 1034,11841 3502,22348 7513,31646 4603,9181 10274,16069 16886,20814 17904,12667 36241,19121 54787,19355 18538,350 32122,-5604 40653,-17745 3077,-4203 5078,-9240 6238,-14868 801,-5270 284,-10882 -1318,-16728l-122325 -86700zm145757 103162c1151,10874 267,21039 -2535,30871 -2085,9581 -5854,18087 -11057,25542 -11850,16703 -30087,25559 -54712,26335 -24517,759 -48116,-6971 -70715,-22957 -5053,-3552 -9273,-9148 -12684,-16895 -3753,-7864 -6446,-17420 -7964,-28411 -10140,2702 -19438,6713 -27777,11908 -8206,5921 -15102,12667 -20672,20472 -8047,11308 -10232,24108 -6788,38201 3444,14210 11541,25868 24392,34990 22715,15986 49684,25492 81038,28378 30996,2543 63009,-1751 96065,-12850l97658 -75893 -84249 -59690z"/>
    <polygon id="_14" class="fil5" points="5516745,1317551 5554745,1293476 5689520,1410530 5651644,1434488 5605563,1394595 5387107,1532588 5416018,1624033 5393428,1628244 5350707,1491485 5562826,1357444 "/>
   </g>
  </g>
 </g>
</svg>
